<?xml version="1.0" encoding="UTF-8"?>
<!DOCTYPE svg PUBLIC "-//W3C//DTD SVG 1.1//EN" "http://www.w3.org/Graphics/SVG/1.1/DTD/svg11.dtd">
<!-- Creator: CorelDRAW 2021 (64-Bit) -->
<svg xmlns="http://www.w3.org/2000/svg" xml:space="preserve" width="24.0157in" height="17.3228in" version="1.1" style="shape-rendering:geometricPrecision; text-rendering:geometricPrecision; image-rendering:optimizeQuality; fill-rule:evenodd; clip-rule:evenodd"
viewBox="0 0 24015.75 17322.83"
 xmlns:xlink="http://www.w3.org/1999/xlink"
 xmlns:xodm="http://www.corel.com/coreldraw/odm/2003">
 <defs>
  <style type="text/css">
   <![CDATA[
    .str3 {stroke:red;stroke-width:9.84;stroke-linejoin:bevel;stroke-miterlimit:2.61313}
    .str1 {stroke:red;stroke-width:3;stroke-linejoin:bevel;stroke-miterlimit:2.61313}
    .str2 {stroke:red;stroke-width:7.87;stroke-linecap:round;stroke-linejoin:round;stroke-miterlimit:2.61313}
    .str0 {stroke:red;stroke-width:3;stroke-linecap:round;stroke-linejoin:round;stroke-miterlimit:2.61313}
    .fil1 {fill:none}
    .fil0 {fill:none;fill-rule:nonzero}
   ]]>
  </style>
 </defs>
 <g id="Layer_x0020_1">
  <metadata id="CorelCorpID_0Corel-Layer"/>
  <path class="fil0 str0" d="M8281.28 4197.36l491.14 0c3.94,0 0,-3.94 0,0l0 183.07c0,2.17 1.77,3.94 3.94,3.94l374.02 0c2.17,0 3.94,-1.77 3.94,-3.94l0 -183.07c0,-3.94 -3.94,0 0,0l366.14 0c3.94,0 0,-3.94 0,0l0 183.07c0,2.17 1.77,3.94 3.94,3.94l374.02 0c2.17,0 3.94,-1.77 3.94,-3.94l0 -183.07c0,-3.94 -3.94,0 0,0l491.14 0 187.01 0 539.37 0c3.94,0 0,-3.94 0,0l0 183.07c0,2.17 1.77,3.94 3.94,3.94l374.02 0c2.17,0 3.94,-1.77 3.94,-3.94l0 -183.07c0,-3.94 -3.94,0 0,0l366.14 0c3.94,0 0,-3.94 0,0l0 183.07c0,2.17 1.77,3.94 3.94,3.94l374.02 0c2.17,0 3.94,-1.77 3.94,-3.94l0 -183.07c0,-3.94 -3.94,0 0,0l366.14 0c3.94,0 0,-3.94 0,0l0 183.07c0,2.17 1.77,3.94 3.94,3.94l374.02 0c2.17,0 3.94,-1.77 3.94,-3.94l0 -183.07c0,-3.94 -3.94,0 0,0l366.14 0c3.94,0 0,-3.94 0,0l0 183.07c0,2.17 1.77,3.94 3.94,3.94l374.02 0c2.17,0 3.94,-1.77 3.94,-3.94l0 -183.07c0,-3.94 -3.94,0 0,0l366.14 0c3.94,0 0,-3.94 0,0l0 183.07c0,2.17 1.77,3.94 3.94,3.94l374.02 0c2.17,0 3.94,-1.77 3.94,-3.94l0 -183.07c0,-3.94 -3.94,0 0,0l366.14 0c3.94,0 0,-3.94 0,0l0 183.07c0,2.17 1.77,3.94 3.94,3.94l374.02 0c2.17,0 3.94,-1.77 3.94,-3.94l0 -183.07c0,-3.94 -3.94,0 0,0l539.37 0c2.17,0 3.94,-1.77 3.94,-3.94l0 -714.57c0,-3.94 -3.94,0 0,0l183.07 0c2.17,0 3.94,-1.77 3.94,-3.94l0 -374.02c0,-2.17 -1.77,-3.94 -3.94,-3.94l-183.07 0c-3.94,0 0,3.94 0,0l0 -366.14c0,-3.94 -3.94,0 0,0l183.07 0c2.17,0 3.94,-1.77 3.94,-3.94l0 -374.02c0,-2.17 -1.77,-3.94 -3.94,-3.94l-183.07 0c-3.94,0 0,3.94 0,0l0 -366.14c0,-3.94 -3.94,0 0,0l183.07 0c2.17,0 3.94,-1.77 3.94,-3.94l0 -374.02c0,-2.17 -1.77,-3.94 -3.94,-3.94l-183.07 0c-3.94,0 0,3.94 0,0l0 -366.14c0,-3.94 -3.94,0 0,0l183.07 0c2.17,0 3.94,-1.77 3.94,-3.94l0 -374.02c0,-2.17 -1.77,-3.94 -3.94,-3.94l-183.07 0c-3.94,0 0,3.94 0,0l0 -714.57c0,-2.17 -1.77,-3.94 -3.94,-3.94l-7500 0c-2.17,0 -3.94,1.77 -3.94,3.94l0 714.57c0,3.94 3.94,0 0,0l-183.07 0c-2.17,0 -3.94,1.77 -3.94,3.94l0 374.02c0,2.17 1.77,3.94 3.94,3.94l183.07 0c3.94,0 0,-3.94 0,0l0 366.14c0,3.94 3.94,0 0,0l-183.07 0c-2.17,0 -3.94,1.77 -3.94,3.94l0 374.02c0,2.17 1.77,3.94 3.94,3.94l183.07 0c3.94,0 0,-3.94 0,0l0 366.14c0,3.94 3.94,0 0,0l-183.07 0c-2.17,0 -3.94,1.77 -3.94,3.94l0 374.02c0,2.17 1.77,3.94 3.94,3.94l183.07 0c3.94,0 0,-3.94 0,0l0 366.14c0,3.94 3.94,0 0,0l-183.07 0c-2.17,0 -3.94,1.77 -3.94,3.94l0 374.02c0,2.17 1.77,3.94 3.94,3.94l183.07 0c3.94,0 0,-3.94 0,0l0 714.57c0,2.17 1.77,3.94 3.94,3.94z"/>
  <path class="fil0 str0" d="M10576.56 3287.91l0 183.07c0,3.94 3.94,0 0,0l-179.13 0c-3.94,0 0,3.94 0,0l0 -366.14c0,-3.94 -3.94,0 0,0l179.13 0c3.94,0 0,-3.94 0,0l0 183.07z"/>
  <path class="fil0 str0" d="M10576.56 2539.88l0 183.07c0,3.94 3.94,0 0,0l-179.13 0c-3.94,0 0,3.94 0,0l0 -366.14c0,-3.94 -3.94,0 0,0l179.13 0c3.94,0 0,-3.94 0,0l0 183.07z"/>
  <path class="fil0 str0" d="M10576.56 1791.85l0 183.07c0,3.94 3.94,0 0,0l-179.13 0c-3.94,0 0,3.94 0,0l0 -366.14c0,-3.94 -3.94,0 0,0l179.13 0c3.94,0 0,-3.94 0,0l0 183.07z"/>
  <path class="fil0 str0" d="M10576.56 1043.82l0 183.07c0,3.94 3.94,0 0,0l-179.13 0c-3.94,0 0,3.94 0,0l0 -366.14c0,-3.94 -3.94,0 0,0l179.13 0c3.94,0 0,-3.94 0,0l0 183.07z"/>
  <path class="fil0 str0" d="M212.57 17299.2l527.56 0c3.94,0 0,-3.94 0,0l0 183.07c0,2.17 1.77,3.94 3.94,3.94l374.02 0c2.17,0 3.94,-1.77 3.94,-3.94l0 -183.07c0,-3.94 -3.94,0 0,0l366.14 0c3.94,0 0,-3.94 0,0l0 183.07c0,2.17 1.77,3.94 3.94,3.94l374.02 0c2.17,0 3.94,-1.77 3.94,-3.94l0 -183.07c0,-3.94 -3.94,0 0,0l366.14 0c3.94,0 0,-3.94 0,0l0 183.07c0,2.17 1.77,3.94 3.94,3.94l374.02 0c2.17,0 3.94,-1.77 3.94,-3.94l0 -183.07c0,-3.94 -3.94,0 0,0l366.14 0c3.94,0 0,-3.94 0,0l0 183.07c0,2.17 1.77,3.94 3.94,3.94l374.02 0c2.17,0 3.94,-1.77 3.94,-3.94l0 -183.07c0,-3.94 -3.94,0 0,0l366.14 0c3.94,0 0,-3.94 0,0l0 183.07c0,2.17 1.77,3.94 3.94,3.94l374.02 0c2.17,0 3.94,-1.77 3.94,-3.94l0 -183.07c0,-3.94 -3.94,0 0,0l366.14 0c3.94,0 0,-3.94 0,0l0 183.07c0,2.17 1.77,3.94 3.94,3.94l374.02 0c2.17,0 3.94,-1.77 3.94,-3.94l0 -183.07c0,-3.94 -3.94,0 0,0l366.14 0c3.94,0 0,-3.94 0,0l0 183.07c0,2.17 1.77,3.94 3.94,3.94l374.02 0c2.17,0 3.94,-1.77 3.94,-3.94l0 -183.07c0,-3.94 -3.94,0 0,0l366.14 0c3.94,0 0,-3.94 0,0l0 183.07c0,2.17 1.77,3.94 3.94,3.94l374.02 0c2.17,0 3.94,-1.77 3.94,-3.94l0 -183.07c0,-3.94 -3.94,0 0,0l366.14 0c3.94,0 0,-3.94 0,0l0 183.07c0,2.17 1.77,3.94 3.94,3.94l374.02 0c2.17,0 3.94,-1.77 3.94,-3.94l0 -183.07c0,-3.94 -3.94,0 0,0l366.14 0c3.94,0 0,-3.94 0,0l0 183.07c0,2.17 1.77,3.94 3.94,3.94l374.02 0c2.17,0 3.94,-1.77 3.94,-3.94l0 -183.07c0,-3.94 -3.94,0 0,0l366.14 0c3.94,0 0,-3.94 0,0l0 183.07c0,2.17 1.77,3.94 3.94,3.94l374.02 0c2.17,0 3.94,-1.77 3.94,-3.94l0 -183.07c0,-3.94 -3.94,0 0,0l366.14 0c3.94,0 0,-3.94 0,0l0 183.07c0,2.17 1.77,3.94 3.94,3.94l374.02 0c2.17,0 3.94,-1.77 3.94,-3.94l0 -183.07c0,-3.94 -3.94,0 0,0l366.14 0c3.94,0 0,-3.94 0,0l0 183.07c0,2.17 1.77,3.94 3.94,3.94l374.02 0c2.17,0 3.94,-1.77 3.94,-3.94l0 -183.07c0,-3.94 -3.94,0 0,0l366.14 0c3.94,0 0,-3.94 0,0l0 183.07c0,2.17 1.77,3.94 3.94,3.94l374.02 0c2.17,0 3.94,-1.77 3.94,-3.94l0 -183.07c0,-3.94 -3.94,0 0,0l366.14 0c3.94,0 0,-3.94 0,0l0 183.07c0,2.17 1.77,3.94 3.94,3.94l374.02 0c2.17,0 3.94,-1.77 3.94,-3.94l0 -183.07c0,-3.94 -3.94,0 0,0l527.56 0 187.01 0c2.17,0 3.94,-1.77 3.94,-3.94l0 -718.5c0,-2.17 -1.77,-3.94 -3.94,-3.94l-183.07 0c-3.94,0 0,3.94 0,0l0 -366.14c0,-3.94 -3.94,0 0,0l183.07 0c2.17,0 3.94,-1.77 3.94,-3.94l0 -374.02c0,-2.17 -1.77,-3.94 -3.94,-3.94l-183.07 0c-3.94,0 0,3.94 0,0l0 -366.14c0,-3.94 -3.94,0 0,0l183.07 0c2.17,0 3.94,-1.77 3.94,-3.94l0 -374.02c0,-2.17 -1.77,-3.94 -3.94,-3.94l-183.07 0c-3.94,0 0,3.94 0,0l0 -366.14c0,-3.94 -3.94,0 0,0l183.07 0c2.17,0 3.94,-1.77 3.94,-3.94l0 -374.02c0,-2.17 -1.77,-3.94 -3.94,-3.94l-183.07 0c-3.94,0 0,3.94 0,0l0 -366.14c0,-3.94 -3.94,0 0,0l183.07 0c2.17,0 3.94,-1.77 3.94,-3.94l0 -718.5c0,-2.17 -1.77,-3.94 -3.94,-3.94l-187.01 0 -11909.45 0 -187.01 0c-2.17,0 -3.94,1.77 -3.94,3.94l0 718.5c0,2.17 1.77,3.94 3.94,3.94l183.07 0c3.94,0 0,-3.94 0,0l0 366.14c0,3.94 3.94,0 0,0l-183.07 0c-2.17,0 -3.94,1.77 -3.94,3.94l0 374.02c0,2.17 1.77,3.94 3.94,3.94l183.07 0c3.94,0 0,-3.94 0,0l0 366.14c0,3.94 3.94,0 0,0l-183.07 0c-2.17,0 -3.94,1.77 -3.94,3.94l0 374.02c0,2.17 1.77,3.94 3.94,3.94l183.07 0c3.94,0 0,-3.94 0,0l0 366.14c0,3.94 3.94,0 0,0l-183.07 0c-2.17,0 -3.94,1.77 -3.94,3.94l0 374.02c0,2.17 1.77,3.94 3.94,3.94l183.07 0c3.94,0 0,-3.94 0,0l0 366.14c0,3.94 3.94,0 0,0l-183.07 0c-2.17,0 -3.94,1.77 -3.94,3.94l0 718.5c0,2.17 1.77,3.94 3.94,3.94l187.01 0z"/>
  <path class="fil0 str0" d="M13737.4 16965.37l527.56 0c3.94,0 -0,-3.94 0,0l0 183.07c0,2.17 1.77,3.94 3.94,3.94l374.01 0c2.17,0 3.94,-1.77 3.94,-3.94l0 -183.07c0,-3.94 -3.94,0 0,0l366.14 0c3.94,0 0,-3.94 0,0l0 183.07c0,2.17 1.77,3.94 3.94,3.94l374.02 0c2.17,0 3.94,-1.77 3.94,-3.94l0 -183.07c0,-3.94 -3.94,0 0,0l366.14 0c3.94,0 0,-3.94 0,0l0 183.07c0,2.17 1.77,3.94 3.94,3.94l374.02 0c2.17,0 3.94,-1.77 3.94,-3.94l0 -183.07c0,-3.94 -3.94,0 0,0l366.14 0c3.94,0 0,-3.94 0,0l0 183.07c0,2.17 1.77,3.94 3.94,3.94l374.02 0c2.17,0 3.94,-1.77 3.94,-3.94l0 -183.07c0,-3.94 -3.94,0 0,0l366.14 0c3.94,0 0,-3.94 0,0l0 183.07c0,2.17 1.77,3.94 3.94,3.94l374.02 0c2.17,0 3.94,-1.77 3.94,-3.94l0 -183.07c0,-3.94 -3.94,0 0,0l366.14 0c3.94,0 0,-3.94 0,0l0 183.07c0,2.17 1.77,3.94 3.94,3.94l374.02 0c2.17,0 3.94,-1.77 3.94,-3.94l0 -183.07c0,-3.94 -3.94,0 0,0l366.14 0c3.94,0 0,-3.94 0,0l0 183.07c0,2.17 1.77,3.94 3.94,3.94l374.02 0c2.17,0 3.94,-1.77 3.94,-3.94l0 -183.07c0,-3.94 -3.94,0 0,0l366.14 0c3.94,0 0,-3.94 0,0l0 183.07c0,2.17 1.77,3.94 3.94,3.94l374.02 0c2.17,0 3.94,-1.77 3.94,-3.94l0 -183.07c0,-3.94 -3.94,0 0,0l366.14 0c3.94,0 0,-3.94 0,0l0 183.07c0,2.17 1.77,3.94 3.94,3.94l374.02 0c2.17,0 3.94,-1.77 3.94,-3.94l0 -183.07c0,-3.94 -3.94,0 0,0l366.14 0c3.94,0 0,-3.94 0,0l0 183.07c0,2.17 1.77,3.94 3.94,3.94l374.02 0c2.17,0 3.94,-1.77 3.94,-3.94l0 -183.07c0,-3.94 -3.94,0 0,0l366.14 0c3.94,0 0,-3.94 0,0l0 183.07c0,2.17 1.77,3.94 3.94,3.94l374.02 0c2.17,0 3.94,-1.77 3.94,-3.94l0 -183.07c0,-3.94 -3.94,0 0,0l366.14 0c3.94,0 0,-3.94 0,0l0 183.07c0,2.17 1.77,3.94 3.94,3.94l374.02 0c2.17,0 3.94,-1.77 3.94,-3.94l0 -183.07c0,-3.94 -3.94,0 0,0l366.14 0c3.94,0 0,-3.94 0,0l0 183.07c0,2.17 1.77,3.94 3.94,3.94l374.02 0c2.17,0 3.94,-1.77 3.94,-3.94l0 -183.07c0,-3.94 -3.94,0 0,0l366.14 0c3.94,0 0,-3.94 0,0l0 183.07c0,2.17 1.77,3.94 3.94,3.94l374.02 0c2.17,0 3.94,-1.77 3.94,-3.94l0 -183.07c0,-3.94 -3.94,0 0,0l366.14 0c3.94,0 0,-3.94 0,0l0 183.07c0,2.17 1.77,3.94 3.94,3.94l374.02 0c2.17,0 3.94,-1.77 3.94,-3.94l0 -183.07c0,-3.94 -3.94,0 0,0l527.56 0 187.01 0c2.17,0 3.94,-1.77 3.94,-3.94l0 -718.5c0,-2.17 -1.77,-3.94 -3.94,-3.94l-183.07 0c-3.94,0 0,3.94 0,0l0 -366.14c0,-3.94 -3.94,0 0,0l183.07 0c2.17,0 3.94,-1.77 3.94,-3.94l0 -374.02c0,-2.17 -1.77,-3.94 -3.94,-3.94l-183.07 0c-3.94,0 0,3.94 0,0l0 -366.14c0,-3.94 -3.94,0 0,0l183.07 0c2.17,0 3.94,-1.77 3.94,-3.94l0 -374.02c0,-2.17 -1.77,-3.94 -3.94,-3.94l-183.07 0c-3.94,0 0,3.94 0,0l0 -366.14c-0,-3.94 -3.94,0 0,0l183.07 0c2.17,0 3.94,-1.77 3.94,-3.94l0 -374.02c0,-2.17 -1.77,-3.94 -3.94,-3.94l-183.07 0c-3.94,0 0,3.94 0,0l0 -366.14c0,-3.94 -3.94,0 0,0l183.07 0c2.17,0 3.94,-1.77 3.94,-3.94l0 -718.5c0,-2.17 -1.77,-3.94 -3.94,-3.94l-187.01 0 -5051.04 0 0 1415.02 -5039.37 0 0 -1415.02 -1819.04 0 -187.01 0c-2.17,0 -3.94,1.77 -3.94,3.94l0 718.5c0,2.17 1.77,3.94 3.94,3.94l183.07 0c3.94,0 0,-3.94 0,0l0 366.14c0,3.94 3.94,0 0,0l-183.07 0c-2.17,0 -3.94,1.77 -3.94,3.94l0 374.02c0,2.17 1.77,3.94 3.94,3.94l183.07 0c3.94,0 0,-3.94 0,0l0 366.14c0,3.94 3.94,0 0,0l-183.07 0c-2.17,0 -3.94,1.77 -3.94,3.94l0 374.02c0,2.17 1.77,3.94 3.94,3.94l183.07 0c3.94,0 0,-3.94 0,0l0 366.14c0,3.94 3.94,0 0,0l-183.07 0c-2.17,0 -3.94,1.77 -3.94,3.94l0 374.02c0,2.17 1.77,3.94 3.94,3.94l183.07 0c3.94,0 0,-3.94 0,0l0 366.14c0,3.94 3.94,0 0,0l-183.07 0c-2.17,0 -3.94,1.77 -3.94,3.94l0 718.5c0,2.17 1.77,3.94 3.94,3.94l187.01 0z"/>
 </g>
 <g id="_0">
  <metadata id="CorelCorpID_1Corel-Layer"/>
  <path class="fil1 str1" d="M9165.32 529.19c0,-43.49 -35.25,-78.74 -78.74,-78.74 -43.49,0 -78.74,35.25 -78.74,78.74 0,43.49 35.25,78.74 78.74,78.74 43.48,0 78.74,-35.25 78.74,-78.74z"/>
  <path class="fil1 str1" d="M9637.76 844.15c0,-43.49 -35.25,-78.74 -78.74,-78.74 -43.49,0 -78.74,35.25 -78.74,78.74 0,43.49 35.25,78.74 78.74,78.74 43.48,0 78.74,-35.25 78.74,-78.74z"/>
  <path class="fil1 str1" d="M15070.83 529.19c0,-43.49 -35.25,-78.74 -78.74,-78.74 -43.49,0 -78.74,35.25 -78.74,78.74 0,43.49 35.25,78.74 78.74,78.74 43.48,0 78.74,-35.25 78.74,-78.74z"/>
  <path class="fil1 str1" d="M14598.39 844.15c0,-43.49 -35.25,-78.74 -78.74,-78.74 -43.49,0 -78.74,35.25 -78.74,78.74 0,43.49 35.25,78.74 78.74,78.74 43.48,0 78.74,-35.25 78.74,-78.74z"/>
  <path class="fil1 str1" d="M15543.28 844.15c0,-43.49 -35.25,-78.74 -78.74,-78.74 -43.49,0 -78.74,35.25 -78.74,78.74 0,43.49 35.25,78.74 78.74,78.74 43.48,0 78.74,-35.25 78.74,-78.74z"/>
  <path class="fil1 str1" d="M8692.88 844.15c0,-43.49 -35.25,-78.74 -78.74,-78.74 -43.49,0 -78.74,35.25 -78.74,78.74 0,43.49 35.25,78.74 78.74,78.74 43.48,0 78.74,-35.25 78.74,-78.74z"/>
  <path class="fil1 str1" d="M10139.02 3422.89c0,-34.79 -28.2,-62.99 -62.99,-62.99 -34.79,0 -62.99,28.2 -62.99,62.99 0,34.79 28.2,62.99 62.99,62.99 34.79,0 62.99,-28.2 62.99,-62.99z"/>
  <path class="fil1 str1" d="M8918.55 3422.89c0,-34.79 -28.2,-62.99 -62.99,-62.99 -34.79,0 -62.99,28.2 -62.99,62.99 0,34.79 28.2,62.99 62.99,62.99 34.79,0 62.99,-28.2 62.99,-62.99z"/>
  <path class="fil1 str1" d="M8918.55 2202.42c0,-34.79 -28.2,-62.99 -62.99,-62.99 -34.79,0 -62.99,28.2 -62.99,62.99 0,34.79 28.2,62.99 62.99,62.99 34.79,0 62.99,-28.2 62.99,-62.99z"/>
  <path class="fil1 str1" d="M10139.02 2202.42c0,-34.79 -28.2,-62.99 -62.99,-62.99 -34.79,0 -62.99,28.2 -62.99,62.99 0,34.79 28.2,62.99 62.99,62.99 34.79,0 62.99,-28.2 62.99,-62.99z"/>
  <path class="fil1 str1" d="M9898.86 2812.65c0,-239.18 -193.89,-433.07 -433.07,-433.07 -239.18,0 -433.07,193.89 -433.07,433.07 0,239.18 193.89,433.07 433.07,433.07 239.18,0 433.07,-193.89 433.07,-433.07z"/>
 </g>
 <g id="_0_0">
  <metadata id="CorelCorpID_2Corel-Layer"/>
  <g id="_2103093006768">
   <path class="fil0 str2" d="M16764.88 4269.66l491.14 0c3.94,0 0,-3.94 0,0l0 183.07c0,2.17 1.77,3.94 3.94,3.94l374.02 0c2.17,0 3.94,-1.77 3.94,-3.94l0 -183.07c0,-3.94 -3.94,0 0,0l366.14 0c3.94,0 0,-3.94 0,0l0 183.07c0,2.17 1.77,3.94 3.94,3.94l374.02 0c2.17,0 3.94,-1.77 3.94,-3.94l0 -183.07c0,-3.94 -3.94,0 0,0l491.14 0 187.01 0 539.37 0c3.94,0 0,-3.94 0,0l0 183.07c0,2.17 1.77,3.94 3.94,3.94l374.02 0c2.17,0 3.94,-1.77 3.94,-3.94l0 -183.07c0,-3.94 -3.94,0 0,0l366.14 0c3.94,0 0,-3.94 0,0l0 183.07c0,2.17 1.77,3.94 3.94,3.94l374.02 0c2.17,0 3.94,-1.77 3.94,-3.94l0 -183.07c0,-3.94 -3.94,0 0,0l366.14 0c3.94,0 0,-3.94 0,0l0 183.07c0,2.17 1.77,3.94 3.94,3.94l374.02 0c2.17,0 3.94,-1.77 3.94,-3.94l0 -183.07c0,-3.94 -3.94,0 0,0l366.14 0c3.94,0 0,-3.94 0,0l0 183.07c0,2.17 1.77,3.94 3.94,3.94l374.02 0c2.17,0 3.94,-1.77 3.94,-3.94l0 -183.07c0,-3.94 -3.94,0 0,0l366.14 0c3.94,0 0,-3.94 0,0l0 183.07c0,2.17 1.77,3.94 3.94,3.94l374.02 0c2.17,0 3.94,-1.77 3.94,-3.94l0 -183.07c0,-3.94 -3.94,0 0,0l366.14 0c3.94,0 0,-3.94 0,0l0 183.07c0,2.17 1.77,3.94 3.94,3.94l374.02 0c2.17,0 3.94,-1.77 3.94,-3.94l0 -183.07c0,-3.94 -3.94,0 0,0l539.37 0c2.17,0 3.94,-1.77 3.94,-3.94l0 -714.57c0,-3.94 -3.94,0 0,0l183.07 0c2.17,0 3.94,-1.77 3.94,-3.94l0 -374.02c0,-2.17 -1.77,-3.94 -3.94,-3.94l-183.07 0c-3.94,0 0,3.94 0,0l0 -366.14c0,-3.94 -3.94,0 0,0l183.07 0c2.17,0 3.94,-1.77 3.94,-3.94l0 -374.02c0,-2.17 -1.77,-3.94 -3.94,-3.94l-183.07 0c-3.94,0 0,3.94 0,0l0 -366.14c0,-3.94 -3.94,0 0,0l183.07 0c2.17,0 3.94,-1.77 3.94,-3.94l0 -374.02c0,-2.17 -1.77,-3.94 -3.94,-3.94l-183.07 0c-3.94,0 0,3.94 0,0l0 -366.14c0,-3.94 -3.94,0 0,0l183.07 0c2.17,0 3.94,-1.77 3.94,-3.94l0 -374.02c0,-2.17 -1.77,-3.94 -3.94,-3.94l-183.07 0c-3.94,0 0,3.94 0,0l0 -714.57c0,-2.17 -1.77,-3.94 -3.94,-3.94l-7500 0c-2.17,0 -3.94,1.77 -3.94,3.94l0 714.57c0,3.94 3.94,0 0,0l-183.07 0c-2.17,0 -3.94,1.77 -3.94,3.94l0 374.02c0,2.17 1.77,3.94 3.94,3.94l183.07 0c3.94,0 0,-3.94 0,0l0 366.14c0,3.94 3.94,0 0,0l-183.07 0c-2.17,0 -3.94,1.77 -3.94,3.94l0 374.02c0,2.17 1.77,3.94 3.94,3.94l183.07 0c3.94,0 0,-3.94 0,0l0 366.14c0,3.94 3.94,0 0,0l-183.07 0c-2.17,0 -3.94,1.77 -3.94,3.94l0 374.02c0,2.17 1.77,3.94 3.94,3.94l183.07 0c3.94,0 0,-3.94 0,0l0 366.14c0,3.94 3.94,0 0,0l-183.07 0c-2.17,0 -3.94,1.77 -3.94,3.94l0 374.02c0,2.17 1.77,3.94 3.94,3.94l183.07 0c3.94,0 0,-3.94 0,0l0 714.57c0,2.17 1.77,3.94 3.94,3.94z"/>
   <path class="fil0 str2" d="M19060.16 3360.21l0 183.07c0,3.94 3.94,0 0,0l-179.13 0c-3.94,0 0,3.94 0,0l0 -366.14c0,-3.94 -3.94,0 0,0l179.13 0c3.94,0 0,-3.94 0,0l0 183.07z"/>
   <path class="fil0 str2" d="M19060.16 2612.18l0 183.07c0,3.94 3.94,0 0,0l-179.13 0c-3.94,0 0,3.94 0,0l0 -366.14c0,-3.94 -3.94,0 0,0l179.13 0c3.94,0 0,-3.94 0,0l0 183.07z"/>
   <path class="fil0 str2" d="M19060.16 1864.15l0 183.07c0,3.94 3.94,0 0,0l-179.13 0c-3.94,0 0,3.94 0,0l0 -366.14c0,-3.94 -3.94,0 0,0l179.13 0c3.94,0 0,-3.94 0,0l0 183.07z"/>
   <path class="fil0 str2" d="M19060.16 1116.12l0 183.07c0,3.94 3.94,0 0,0l-179.13 0c-3.94,0 0,3.94 0,0l0 -366.14c0,-3.94 -3.94,0 0,0l179.13 0c3.94,0 0,-3.94 0,0l0 183.07z"/>
   <path class="fil1 str3" d="M23548.8 606.57c0,-43.49 -35.25,-78.74 -78.74,-78.74 -43.48,0 -78.74,35.25 -78.74,78.74 0,43.49 35.25,78.74 78.74,78.74 43.49,0 78.74,-35.25 78.74,-78.74z"/>
   <path class="fil1 str3" d="M23076.36 921.54c0,-43.49 -35.25,-78.74 -78.74,-78.74 -43.48,0 -78.74,35.25 -78.74,78.74 0,43.49 35.25,78.74 78.74,78.74 43.49,0 78.74,-35.25 78.74,-78.74z"/>
   <path class="fil1 str3" d="M17643.29 606.57c0,-43.49 -35.25,-78.74 -78.74,-78.74 -43.48,0 -78.74,35.25 -78.74,78.74 0,43.49 35.25,78.74 78.74,78.74 43.49,0 78.74,-35.25 78.74,-78.74z"/>
   <path class="fil1 str3" d="M18115.73 921.54c0,-43.49 -35.25,-78.74 -78.74,-78.74 -43.48,0 -78.74,35.25 -78.74,78.74 0,43.49 35.25,78.74 78.74,78.74 43.49,0 78.74,-35.25 78.74,-78.74z"/>
   <path class="fil1 str3" d="M17170.85 921.54c0,-43.49 -35.25,-78.74 -78.74,-78.74 -43.48,0 -78.74,35.25 -78.74,78.74 0,43.49 35.25,78.74 78.74,78.74 43.49,0 78.74,-35.25 78.74,-78.74z"/>
   <path class="fil1 str3" d="M24021.24 921.54c0,-43.49 -35.25,-78.74 -78.74,-78.74 -43.48,0 -78.74,35.25 -78.74,78.74 0,43.49 35.25,78.74 78.74,78.74 43.49,0 78.74,-35.25 78.74,-78.74z"/>
  </g>
 </g>
 <g id="_0_1">
  <metadata id="CorelCorpID_3Corel-Layer"/>
  <g id="_2103093040416">
   <path class="fil0 str0" d="M21.62 12451.69l495.08 0c2.17,0 3.94,-1.77 3.94,-3.94l0 -183.07c0,-3.94 -3.94,0 0,0l366.14 0c3.94,0 0,-3.94 0,0l0 183.07c0,2.17 1.77,3.94 3.94,3.94l374.02 0c2.17,0 3.94,-1.77 3.94,-3.94l0 -183.07c0,-3.94 -3.94,0 0,0l366.14 0c3.94,0 0,-3.94 0,0l0 183.07c0,2.17 1.77,3.94 3.94,3.94l495.08 0m-2299.21 0l187.01 0m2299.21 0l543.31 0c2.17,0 3.94,-1.77 3.94,-3.94l0 -183.07c0,-3.94 -3.94,0 0,0l366.14 0c3.94,0 0,-3.94 0,0l0 183.07c0,2.17 1.77,3.94 3.94,3.94l374.02 0c2.17,0 3.94,-1.77 3.94,-3.94l0 -183.07c0,-3.94 -3.94,0 0,0l366.14 0c3.94,0 0,-3.94 0,0l0 183.07c0,2.17 1.77,3.94 3.94,3.94l374.02 0c2.17,0 3.94,-1.77 3.94,-3.94l0 -183.07c0,-3.94 -3.94,0 0,0l366.14 0c3.94,0 0,-3.94 0,0l0 183.07c0,2.17 1.77,3.94 3.94,3.94l374.02 0c2.17,0 3.94,-1.77 3.94,-3.94l0 -183.07c0,-3.94 -3.94,0 0,0l366.14 0c3.94,0 0,-3.94 0,0l0 183.07c0,2.17 1.77,3.94 3.94,3.94l374.02 0c2.17,0 3.94,-1.77 3.94,-3.94l0 -183.07c0,-3.94 -3.94,0 0,0l366.14 0c3.94,0 0,-3.94 0,0l0 183.07c0,2.17 1.77,3.94 3.94,3.94l374.02 0c2.17,0 3.94,-1.77 3.94,-3.94l0 -183.07c0,-3.94 -3.94,0 0,0l366.14 0c3.94,0 0,-3.94 0,0l0 183.07c0,2.17 1.77,3.94 3.94,3.94l543.31 0m-5387.8 0l187.01 0m5200.79 0l187.01 0m-5574.8 -12291.34l-495.08 0c-2.17,0 -3.94,1.77 -3.94,3.94l0 183.07c0,3.94 3.94,0 0,0l-366.14 0c-3.94,0 0,3.94 0,0l0 -183.07c0,-2.17 -1.77,-3.94 -3.94,-3.94l-374.02 0c-2.17,0 -3.94,1.77 -3.94,3.94l0 183.07c0,3.94 3.94,0 0,0l-366.14 0c-3.94,0 0,3.94 0,0l0 -183.07c0,-2.17 -1.77,-3.94 -3.94,-3.94l-495.08 0m-187.01 0l187.01 0m7500 0l-543.31 0c-2.17,0 -3.94,1.77 -3.94,3.94l0 183.07c0,3.94 3.94,0 0,0l-366.14 0c-3.94,0 0,3.94 0,0l0 -183.07c0,-2.17 -1.77,-3.94 -3.94,-3.94l-374.02 0c-2.17,0 -3.94,1.77 -3.94,3.94l0 183.07c0,3.94 3.94,0 0,0l-366.14 0c-3.94,0 0,3.94 0,0l0 -183.07c0,-2.17 -1.77,-3.94 -3.94,-3.94l-374.02 0c-2.17,0 -3.94,1.77 -3.94,3.94l0 183.07c0,3.94 3.94,0 0,0l-366.14 0c-3.94,0 0,3.94 0,0l0 -183.07c0,-2.17 -1.77,-3.94 -3.94,-3.94l-374.02 0c-2.17,0 -3.94,1.77 -3.94,3.94l0 183.07c0,3.94 3.94,0 0,0l-366.14 0c-3.94,0 0,3.94 0,0l0 -183.07c0,-2.17 -1.77,-3.94 -3.94,-3.94l-374.02 0c-2.17,0 -3.94,1.77 -3.94,3.94l0 183.07c0,3.94 3.94,0 0,0l-366.14 0c-3.94,0 0,3.94 0,0l0 -183.07c0,-2.17 -1.77,-3.94 -3.94,-3.94l-374.02 0c-2.17,0 -3.94,1.77 -3.94,3.94l0 183.07c0,3.94 3.94,0 0,0l-366.14 0c-3.94,0 0,3.94 0,0l0 -183.07c0,-2.17 -1.77,-3.94 -3.94,-3.94l-543.31 0m-187.01 0l187.01 0m5200.79 0l187.01 0m-7877.95 190.94l0 531.5c0,2.17 1.77,3.94 3.94,3.94l183.07 0c3.94,0 0,-3.94 0,0l0 366.14c0,3.94 3.94,0 0,0l-183.07 0c-2.17,0 -3.94,1.77 -3.94,3.94l0 374.02c0,2.17 1.77,3.94 3.94,3.94l183.07 0c3.94,0 0,-3.94 0,0l0 366.14c0,3.94 3.94,0 0,0l-183.07 0c-2.17,0 -3.94,1.77 -3.94,3.94l0 374.02c0,2.17 1.77,3.94 3.94,3.94l183.07 0c3.94,0 0,-3.94 0,0l0 366.14c0,3.94 3.94,0 0,0l-183.07 0c-2.17,0 -3.94,1.77 -3.94,3.94l0 374.02c0,2.17 1.77,3.94 3.94,3.94l183.07 0c3.94,0 0,-3.94 0,0l0 366.14c0,3.94 3.94,0 0,0l-183.07 0c-2.17,0 -3.94,1.77 -3.94,3.94l0 374.02c0,2.17 1.77,3.94 3.94,3.94l183.07 0c3.94,0 0,-3.94 0,0l0 366.14c0,3.94 3.94,0 0,0l-183.07 0c-2.17,0 -3.94,1.77 -3.94,3.94l0 374.02c0,2.17 1.77,3.94 3.94,3.94l183.07 0c3.94,0 0,-3.94 0,0l0 366.14c0,3.94 3.94,0 0,0l-183.07 0c-2.17,0 -3.94,1.77 -3.94,3.94l0 374.02c0,2.17 1.77,3.94 3.94,3.94l183.07 0c3.94,0 0,-3.94 0,0l0 366.14c0,3.94 3.94,0 0,0l-183.07 0c-2.17,0 -3.94,1.77 -3.94,3.94l0 374.02c0,2.17 1.77,3.94 3.94,3.94l183.07 0c3.94,0 0,-3.94 0,0l0 366.14c0,3.94 3.94,0 0,0l-183.07 0c-2.17,0 -3.94,1.77 -3.94,3.94l0 374.02c0,2.17 1.77,3.94 3.94,3.94l183.07 0c3.94,0 0,-3.94 0,0l0 366.14c0,3.94 3.94,0 0,0l-183.07 0c-2.17,0 -3.94,1.77 -3.94,3.94l0 374.02c0,2.17 1.77,3.94 3.94,3.94l183.07 0c3.94,0 0,-3.94 0,0l0 366.14c0,3.94 3.94,0 0,0l-183.07 0c-2.17,0 -3.94,1.77 -3.94,3.94l0 374.02c0,2.17 1.77,3.94 3.94,3.94l183.07 0c3.94,0 0,-3.94 0,0l0 366.14c0,3.94 3.94,0 0,0l-183.07 0c-2.17,0 -3.94,1.77 -3.94,3.94l0 374.02c0,2.17 1.77,3.94 3.94,3.94l183.07 0c3.94,0 0,-3.94 0,0l0 366.14c0,3.94 3.94,0 0,0l-183.07 0c-2.17,0 -3.94,1.77 -3.94,3.94l0 374.02c0,2.17 1.77,3.94 3.94,3.94l183.07 0c3.94,0 0,-3.94 0,0l0 366.14c0,3.94 3.94,0 0,0l-183.07 0c-2.17,0 -3.94,1.77 -3.94,3.94l0 374.02c0,2.17 1.77,3.94 3.94,3.94l183.07 0c3.94,0 0,-3.94 0,0l0 366.14c0,3.94 3.94,0 0,0l-183.07 0c-2.17,0 -3.94,1.77 -3.94,3.94l0 374.02c0,2.17 1.77,3.94 3.94,3.94l183.07 0c3.94,0 0,-3.94 0,0l0 366.14c0,3.94 3.94,0 0,0l-183.07 0c-2.17,0 -3.94,1.77 -3.94,3.94l0 531.5m0 -12096.46l0 187.01m0 11909.45l0 187.01"/>
   <path class="fil0 str0" d="M2316.9 11542.24l0 183.07c0,3.94 3.94,0 0,0l-179.13 0c-3.94,0 0,3.94 0,0l0 -366.14c0,-3.94 -3.94,0 0,0l179.13 0c3.94,0 0,-3.94 0,0l0 183.07z"/>
   <path class="fil0 str0" d="M2316.9 10794.21l0 183.07c0,3.94 3.94,0 0,0l-179.13 0c-3.94,0 0,3.94 0,0l0 -366.14c0,-3.94 -3.94,0 0,0l179.13 0c3.94,0 0,-3.94 0,0l0 183.07z"/>
   <path class="fil0 str0" d="M2316.9 10046.18l0 183.07c0,3.94 3.94,0 0,0l-179.13 0c-3.94,0 0,3.94 0,0l0 -366.14c0,-3.94 -3.94,0 0,0l179.13 0c3.94,0 0,-3.94 0,0l0 183.07z"/>
   <path class="fil0 str0" d="M2316.9 9298.15l0 183.07c0,3.94 3.94,0 0,0l-179.13 0c-3.94,0 0,3.94 0,0l0 -366.14c0,-3.94 -3.94,0 0,0l179.13 0c3.94,0 0,-3.94 0,0l0 183.07z"/>
   <path class="fil0 str0" d="M2316.9 8550.11l0 183.07c0,3.94 3.94,0 0,0l-179.13 0c-3.94,0 0,3.94 0,0l0 -366.14c0,-3.94 -3.94,0 0,0l179.13 0c3.94,0 0,-3.94 0,0l0 183.07z"/>
   <path class="fil0 str0" d="M2316.9 7802.08l0 183.07c0,3.94 3.94,0 0,0l-179.13 0c-3.94,0 0,3.94 0,0l0 -366.14c0,-3.94 -3.94,0 0,0l179.13 0c3.94,0 0,-3.94 0,0l0 183.07z"/>
   <path class="fil0 str0" d="M2316.9 7054.05l0 183.07c0,3.94 3.94,0 0,0l-179.13 0c-3.94,0 0,3.94 0,0l0 -366.14c0,-3.94 -3.94,0 0,0l179.13 0c3.94,0 0,-3.94 0,0l0 183.07z"/>
   <path class="fil0 str0" d="M2316.9 6306.02l0 183.07c0,3.94 3.94,0 0,0l-179.13 0c-3.94,0 0,3.94 0,0l0 -366.14c0,-3.94 -3.94,0 0,0l179.13 0c3.94,0 0,-3.94 0,0l0 183.07z"/>
   <path class="fil0 str0" d="M2316.9 5557.99l0 183.07c0,3.94 3.94,0 0,0l-179.13 0c-3.94,0 0,3.94 0,0l0 -366.14c0,-3.94 -3.94,0 0,0l179.13 0c3.94,0 0,-3.94 0,0l0 183.07z"/>
   <path class="fil0 str0" d="M2316.9 4809.96l0 183.07c0,3.94 3.94,0 0,0l-179.13 0c-3.94,0 0,3.94 0,0l0 -366.14c0,-3.94 -3.94,0 0,0l179.13 0c3.94,0 0,-3.94 0,0l0 183.07z"/>
   <path class="fil0 str0" d="M2316.9 4061.93l0 183.07c0,3.94 3.94,0 0,0l-179.13 0c-3.94,0 0,3.94 0,0l0 -366.14c0,-3.94 -3.94,0 0,0l179.13 0c3.94,0 0,-3.94 0,0l0 183.07z"/>
   <path class="fil0 str0" d="M2316.9 3313.89l0 183.07c0,3.94 3.94,0 0,0l-179.13 0c-3.94,0 0,3.94 0,0l0 -366.14c0,-3.94 -3.94,0 0,0l179.13 0c3.94,0 0,-3.94 0,0l0 183.07z"/>
   <path class="fil0 str0" d="M2316.9 2565.86l0 183.07c0,3.94 3.94,0 0,0l-179.13 0c-3.94,0 0,3.94 0,0l0 -366.14c0,-3.94 -3.94,0 0,0l179.13 0c3.94,0 0,-3.94 0,0l0 183.07z"/>
   <path class="fil0 str0" d="M2316.9 1817.83l0 183.07c0,3.94 3.94,0 0,0l-179.13 0c-3.94,0 0,3.94 0,0l0 -366.14c0,-3.94 -3.94,0 0,0l179.13 0c3.94,0 0,-3.94 0,0l0 183.07z"/>
   <path class="fil0 str0" d="M2316.9 1069.8l0 183.07c0,3.94 3.94,0 0,0l-179.13 0c-3.94,0 0,3.94 0,0l0 -366.14c0,-3.94 -3.94,0 0,0l179.13 0c3.94,0 0,-3.94 0,0l0 183.07z"/>
   <path class="fil0 str0" d="M7712.57 12260.74l0 -531.5c0,-2.17 -1.77,-3.94 -3.94,-3.94l-183.07 0c-3.94,0 0,3.94 0,0l0 -366.14c0,-3.94 -3.94,0 0,0l183.07 0c2.17,0 3.94,-1.77 3.94,-3.94l0 -374.02c0,-2.17 -1.77,-3.94 -3.94,-3.94l-183.07 0c-3.94,0 0,3.94 0,0l0 -366.14c0,-3.94 -3.94,0 0,0l183.07 0c2.17,0 3.94,-1.77 3.94,-3.94l0 -374.02c0,-2.17 -1.77,-3.94 -3.94,-3.94l-183.07 0c-3.94,0 0,3.94 0,0l0 -366.14c0,-3.94 -3.94,0 0,0l183.07 0c2.17,0 3.94,-1.77 3.94,-3.94l0 -374.02c0,-2.17 -1.77,-3.94 -3.94,-3.94l-183.07 0c-3.94,0 0,3.94 0,0l0 -366.14c0,-3.94 -3.94,0 0,0l183.07 0c2.17,0 3.94,-1.77 3.94,-3.94l0 -374.02c0,-2.17 -1.77,-3.94 -3.94,-3.94l-183.07 0c-3.94,0 0,3.94 0,0l0 -366.14c0,-3.94 -3.94,0 0,0l183.07 0c2.17,0 3.94,-1.77 3.94,-3.94l0 -374.02c0,-2.17 -1.77,-3.94 -3.94,-3.94l-183.07 0c-3.94,0 0,3.94 0,0l0 -366.14c0,-3.94 -3.94,0 0,0l183.07 0c2.17,0 3.94,-1.77 3.94,-3.94l0 -374.02c0,-2.17 -1.77,-3.94 -3.94,-3.94l-183.07 0c-3.94,0 0,3.94 0,0l0 -366.14c0,-3.94 -3.94,0 0,0l183.07 0c2.17,0 3.94,-1.77 3.94,-3.94l0 -374.02c0,-2.17 -1.77,-3.94 -3.94,-3.94l-183.07 0c-3.94,0 0,3.94 0,0l0 -366.14c0,-3.94 -3.94,0 0,0l183.07 0c2.17,0 3.94,-1.77 3.94,-3.94l0 -374.02c0,-2.17 -1.77,-3.94 -3.94,-3.94l-183.07 0c-3.94,0 0,3.94 0,0l0 -366.14c0,-3.94 -3.94,0 0,0l183.07 0c2.17,0 3.94,-1.77 3.94,-3.94l0 -374.02c0,-2.17 -1.77,-3.94 -3.94,-3.94l-183.07 0c-3.94,0 0,3.94 0,0l0 -366.14c0,-3.94 -3.94,0 0,0l183.07 0c2.17,0 3.94,-1.77 3.94,-3.94l0 -374.02c0,-2.17 -1.77,-3.94 -3.94,-3.94l-183.07 0c-3.94,0 0,3.94 0,0l0 -366.14c0,-3.94 -3.94,0 0,0l183.07 0c2.17,0 3.94,-1.77 3.94,-3.94l0 -374.02c0,-2.17 -1.77,-3.94 -3.94,-3.94l-183.07 0c-3.94,0 0,3.94 0,0l0 -366.14c0,-3.94 -3.94,0 0,0l183.07 0c2.17,0 3.94,-1.77 3.94,-3.94l0 -374.02c0,-2.17 -1.77,-3.94 -3.94,-3.94l-183.07 0c-3.94,0 0,3.94 0,0l0 -366.14c0,-3.94 -3.94,0 0,0l183.07 0c2.17,0 3.94,-1.77 3.94,-3.94l0 -374.02c0,-2.17 -1.77,-3.94 -3.94,-3.94l-183.07 0c-3.94,0 0,3.94 0,0l0 -366.14c0,-3.94 -3.94,0 0,0l183.07 0c2.17,0 3.94,-1.77 3.94,-3.94l0 -374.02c0,-2.17 -1.77,-3.94 -3.94,-3.94l-183.07 0c-3.94,0 0,3.94 0,0l0 -366.14c0,-3.94 -3.94,0 0,0l183.07 0c2.17,0 3.94,-1.77 3.94,-3.94l0 -531.5 0 -187.01m0 12283.46l0 -187.01"/>
   <line class="fil1 str1" x1="3067.72" y1="2252.74" x2="3567.72" y2= "2252.74" />
   <line class="fil1 str1" x1="3567.72" y1="2252.74" x2="3567.72" y2= "10752.74" />
   <line class="fil1 str1" x1="3567.72" y1="10752.74" x2="3067.72" y2= "10752.74" />
   <line class="fil1 str1" x1="3067.72" y1="10752.74" x2="3067.72" y2= "2252.74" />
  </g>
  <g id="_2102670058336">
   <path class="fil0 str0" d="M9677.38 9577.65l527.56 0c3.94,0 0,-3.94 0,0l0 183.07c0,2.17 1.77,3.94 3.94,3.94l374.02 0c2.17,0 3.94,-1.77 3.94,-3.94l0 -183.07c0,-3.94 -3.94,0 0,0l366.14 0c3.94,0 0,-3.94 0,0l0 183.07c0,2.17 1.77,3.94 3.94,3.94l374.02 0c2.17,0 3.94,-1.77 3.94,-3.94l0 -183.07c0,-3.94 -3.94,0 0,0l366.14 0c3.94,0 0,-3.94 0,0l0 183.07c0,2.17 1.77,3.94 3.94,3.94l374.02 0c2.17,0 3.94,-1.77 3.94,-3.94l0 -183.07c0,-3.94 -3.94,0 0,0l366.14 0c3.94,0 0,-3.94 0,0l0 183.07c0,2.17 1.77,3.94 3.94,3.94l374.02 0c2.17,0 3.94,-1.77 3.94,-3.94l0 -183.07c0,-3.94 -3.94,0 0,0l366.14 0c3.94,0 0,-3.94 0,0l0 183.07c0,2.17 1.77,3.94 3.94,3.94l374.02 0c2.17,0 3.94,-1.77 3.94,-3.94l0 -183.07c0,-3.94 -3.94,0 0,0l366.14 0c3.94,0 0,-3.94 0,0l0 183.07c0,2.17 1.77,3.94 3.94,3.94l374.02 0c2.17,0 3.94,-1.77 3.94,-3.94l0 -183.07c0,-3.94 -3.94,0 0,0l366.14 0c3.94,0 0,-3.94 0,0l0 183.07c0,2.17 1.77,3.94 3.94,3.94l374.02 0c2.17,0 3.94,-1.77 3.94,-3.94l0 -183.07c0,-3.94 -3.94,0 0,0l366.14 0c3.94,0 0,-3.94 0,0l0 183.07c0,2.17 1.77,3.94 3.94,3.94l374.02 0c2.17,0 3.94,-1.77 3.94,-3.94l0 -183.07c0,-3.94 -3.94,0 0,0l366.14 0c3.94,0 0,-3.94 0,0l0 183.07c0,2.17 1.77,3.94 3.94,3.94l374.02 0c2.17,0 3.94,-1.77 3.94,-3.94l0 -183.07c0,-3.94 -3.94,0 0,0l366.14 0c3.94,0 0,-3.94 0,0l0 183.07c0,2.17 1.77,3.94 3.94,3.94l374.02 0c2.17,0 3.94,-1.77 3.94,-3.94l0 -183.07c0,-3.94 -3.94,0 0,0l366.14 0c3.94,0 0,-3.94 0,0l0 183.07c0,2.17 1.77,3.94 3.94,3.94l374.02 0c2.17,0 3.94,-1.77 3.94,-3.94l0 -183.07c0,-3.94 -3.94,0 0,0l366.14 0c3.94,0 0,-3.94 0,0l0 183.07c0,2.17 1.77,3.94 3.94,3.94l374.02 0c2.17,0 3.94,-1.77 3.94,-3.94l0 -183.07c0,-3.94 -3.94,0 0,0l366.14 0c3.94,0 0,-3.94 0,0l0 183.07c0,2.17 1.77,3.94 3.94,3.94l374.02 0c2.17,0 3.94,-1.77 3.94,-3.94l0 -183.07c0,-3.94 -3.94,0 0,0l366.14 0c3.94,0 0,-3.94 0,0l0 183.07c0,2.17 1.77,3.94 3.94,3.94l374.02 0c2.17,0 3.94,-1.77 3.94,-3.94l0 -183.07c0,-3.94 -3.94,0 0,0l366.14 0c3.94,0 0,-3.94 0,0l0 183.07c0,2.17 1.77,3.94 3.94,3.94l374.02 0c2.17,0 3.94,-1.77 3.94,-3.94l0 -183.07c0,-3.94 -3.94,0 0,0l527.56 0c2.17,0 3.94,-1.77 3.94,-3.94l0 -714.57c0,-3.94 -3.94,0 0,0l183.07 0c2.17,0 3.94,-1.77 3.94,-3.94l0 -374.02c0,-2.17 -1.77,-3.94 -3.94,-3.94l-183.07 0c-3.94,0 0,3.94 0,0l0 -366.14c0,-3.94 -3.94,0 0,0l183.07 0c2.17,0 3.94,-1.77 3.94,-3.94l0 -374.02c0,-2.17 -1.77,-3.94 -3.94,-3.94l-183.07 0c-3.94,0 0,3.94 0,0l0 -366.14c0,-3.94 -3.94,0 0,0l183.07 0c2.17,0 3.94,-1.77 3.94,-3.94l0 -374.02c0,-2.17 -1.77,-3.94 -3.94,-3.94l-183.07 0c-3.94,0 0,3.94 0,0l0 -366.14c0,-3.94 -3.94,0 0,0l183.07 0c2.17,0 3.94,-1.77 3.94,-3.94l0 -374.02c0,-2.17 -1.77,-3.94 -3.94,-3.94l-183.07 0c-3.94,0 0,3.94 0,0l0 -714.57c0,-2.17 -1.77,-3.94 -3.94,-3.94l-11909.45 0c-2.17,0 -3.94,1.77 -3.94,3.94l0 714.57c0,3.94 3.94,0 0,0l-183.07 0c-2.17,0 -3.94,1.77 -3.94,3.94l0 374.02c0,2.17 1.77,3.94 3.94,3.94l183.07 0c3.94,0 0,-3.94 0,0l0 366.14c0,3.94 3.94,0 0,0l-183.07 0c-2.17,0 -3.94,1.77 -3.94,3.94l0 374.02c0,2.17 1.77,3.94 3.94,3.94l183.07 0c3.94,0 0,-3.94 0,0l0 366.14c0,3.94 3.94,0 0,0l-183.07 0c-2.17,0 -3.94,1.77 -3.94,3.94l0 374.02c0,2.17 1.77,3.94 3.94,3.94l183.07 0c3.94,0 0,-3.94 0,0l0 366.14c0,3.94 3.94,0 0,0l-183.07 0c-2.17,0 -3.94,1.77 -3.94,3.94l0 374.02c0,2.17 1.77,3.94 3.94,3.94l183.07 0c3.94,0 0,-3.94 0,0l0 714.57c0,2.17 1.77,3.94 3.94,3.94z"/>
   <path class="fil1 str1" d="M10724.14 7097.02c27.18,0 49.21,-22.03 49.21,-49.21 0,-27.18 -22.03,-49.21 -49.21,-49.21 -27.18,0 -49.21,22.03 -49.21,49.21 0,27.18 22.03,49.21 49.21,49.21z"/>
   <path class="fil1 str1" d="M11944.61 8317.49c27.18,0 49.21,-22.03 49.21,-49.21 0,-27.18 -22.03,-49.21 -49.21,-49.21 -27.18,0 -49.21,22.03 -49.21,49.21 0,27.18 22.03,49.21 49.21,49.21z"/>
   <path class="fil1 str1" d="M10724.14 8317.49c27.18,0 49.21,-22.03 49.21,-49.21 0,-27.18 -22.03,-49.21 -49.21,-49.21 -27.18,0 -49.21,22.03 -49.21,49.21 0,27.18 22.03,49.21 49.21,49.21z"/>
   <path class="fil1 str1" d="M19602.09 7108.83c33.7,0 61.02,-27.32 61.02,-61.02 0,-33.7 -27.32,-61.02 -61.02,-61.02 -33.7,0 -61.02,27.32 -61.02,61.02 0,33.7 27.32,61.02 61.02,61.02z"/>
   <path class="fil1 str1" d="M18027.29 7108.83c33.7,0 61.02,-27.32 61.02,-61.02 0,-33.7 -27.32,-61.02 -61.02,-61.02 -33.7,0 -61.02,27.32 -61.02,61.02 0,33.7 27.32,61.02 61.02,61.02z"/>
   <path class="fil1 str1" d="M16452.49 7108.83c33.7,0 61.02,-27.32 61.02,-61.02 0,-33.7 -27.32,-61.02 -61.02,-61.02 -33.7,0 -61.02,27.32 -61.02,61.02 0,33.7 27.32,61.02 61.02,61.02z"/>
   <path class="fil1 str1" d="M14877.69 7108.83c33.7,0 61.02,-27.32 61.02,-61.02 0,-33.7 -27.32,-61.02 -61.02,-61.02 -33.7,0 -61.02,27.32 -61.02,61.02 0,33.7 27.32,61.02 61.02,61.02z"/>
   <path class="fil1 str1" d="M13302.88 7108.83c33.7,0 61.02,-27.32 61.02,-61.02 0,-33.7 -27.32,-61.02 -61.02,-61.02 -33.7,0 -61.02,27.32 -61.02,61.02 0,33.7 27.32,61.02 61.02,61.02z"/>
   <path class="fil1 str1" d="M11728.08 7108.83c33.7,0 61.02,-27.32 61.02,-61.02 0,-33.7 -27.32,-61.02 -61.02,-61.02 -33.7,0 -61.02,27.32 -61.02,61.02 0,33.7 27.32,61.02 61.02,61.02z"/>
   <path class="fil1 str1" d="M11334.38 8093.08c240.26,0 435.04,-194.77 435.04,-435.04 0,-240.26 -194.77,-435.04 -435.04,-435.04 -240.26,0 -435.04,194.77 -435.04,435.04 0,240.26 194.77,435.04 435.04,435.04z"/>
   <path class="fil1 str1" d="M20822.57 7719.07c33.7,0 61.02,-27.32 61.02,-61.02 0,-33.7 -27.32,-61.02 -61.02,-61.02 -33.7,0 -61.02,27.32 -61.02,61.02 0,33.7 27.32,61.02 61.02,61.02z"/>
   <line class="fil1 str1" x1="21019.42" y1="7461.19" x2="21019.42" y2= "7854.89" />
   <line class="fil1 str1" x1="21491.86" y1="7461.19" x2="21019.42" y2= "7461.19" />
   <line class="fil1 str1" x1="21491.86" y1="7854.89" x2="21491.86" y2= "7461.19" />
   <line class="fil1 str1" x1="21019.42" y1="7854.89" x2="21491.86" y2= "7854.89" />
   <path class="fil1 str1" d="M12515.48 7108.83c33.7,0 61.02,-27.32 61.02,-61.02 0,-33.7 -27.32,-61.02 -61.02,-61.02 -33.7,0 -61.02,27.32 -61.02,61.02 0,33.7 27.32,61.02 61.02,61.02z"/>
   <path class="fil1 str1" d="M14090.28 7108.83c33.7,0 61.02,-27.32 61.02,-61.02 0,-33.7 -27.32,-61.02 -61.02,-61.02 -33.7,0 -61.02,27.32 -61.02,61.02 0,33.7 27.32,61.02 61.02,61.02z"/>
   <path class="fil1 str1" d="M15665.09 7108.83c33.7,0 61.02,-27.32 61.02,-61.02 0,-33.7 -27.32,-61.02 -61.02,-61.02 -33.7,0 -61.02,27.32 -61.02,61.02 0,33.7 27.32,61.02 61.02,61.02z"/>
   <path class="fil1 str1" d="M17239.89 7108.83c33.7,0 61.02,-27.32 61.02,-61.02 0,-33.7 -27.32,-61.02 -61.02,-61.02 -33.7,0 -61.02,27.32 -61.02,61.02 0,33.7 27.32,61.02 61.02,61.02z"/>
   <path class="fil1 str1" d="M18814.69 7108.83c33.7,0 61.02,-27.32 61.02,-61.02 0,-33.7 -27.32,-61.02 -61.02,-61.02 -33.7,0 -61.02,27.32 -61.02,61.02 0,33.7 27.32,61.02 61.02,61.02z"/>
   <path class="fil1 str1" d="M20389.5 7108.83c33.7,0 61.02,-27.32 61.02,-61.02 0,-33.7 -27.32,-61.02 -61.02,-61.02 -33.7,0 -61.02,27.32 -61.02,61.02 0,33.7 27.32,61.02 61.02,61.02z"/>
  </g>
 </g>
</svg>
